<?xml version="1.0" encoding="utf-8"?><!DOCTYPE svg PUBLIC "-//W3C//DTD SVG 1.1//EN" "http://www.w3.org/Graphics/SVG/1.1/DTD/svg11.dtd"><svg xmlns="http://www.w3.org/2000/svg" xmlns:xlink="http://www.w3.org/1999/xlink"><defs><svg viewBox="0 0 24 32" id="document"><path d="M1.5 32h21c.827 0 1.5-.673 1.5-1.5v-21c0-.017-.008-.031-.009-.047-.002-.023-.008-.043-.013-.065a.488.488 0 0 0-.09-.191c-.007-.009-.006-.02-.013-.029l-8-9c-.003-.003-.007-.003-.01-.006a.494.494 0 0 0-.223-.134c-.019-.006-.036-.008-.056-.011C15.557.012 15.53 0 15.5 0h-14C.673 0 0 .673 0 1.5v29c0 .827.673 1.5 1.5 1.5zM16 1.815L22.387 9H16.5c-.22 0-.5-.42-.5-.75V1.815zM1 1.5a.5.5 0 0 1 .5-.5H15v7.25c0 .809.655 1.75 1.5 1.75H23v20.5a.5.5 0 0 1-.5.5h-21c-.28 0-.5-.22-.5-.5v-29zM5.5 14h13a.5.5 0 0 0 0-1h-13a.5.5 0 0 0 0 1zm0 4h13a.5.5 0 0 0 0-1h-13a.5.5 0 0 0 0 1zm0-8h6a.5.5 0 0 0 0-1h-6a.5.5 0 0 0 0 1zm0 12h13a.5.5 0 0 0 0-1h-13a.5.5 0 0 0 0 1zm0 4h13a.5.5 0 0 0 0-1h-13a.5.5 0 0 0 0 1z"/></svg><svg viewBox="0 0 32 32" id="heart"><path d="M23 2c-2.404 0-4.331.863-6.03 2.563l-.003.003h-.001L16 5.783l-.966-1.143-.003-.003h-.001C13.33 2.936 11.404 2 9 2s-4.664.936-6.364 2.636A8.945 8.945 0 0 0 0 11c0 2.402.935 4.662 2.633 6.361L14.58 29.408a1.998 1.998 0 0 0 2.84 0l11.946-12.047C31.064 15.662 32 13.403 32 11s-.937-4.664-2.636-6.364A8.94 8.94 0 0 0 23 2z"/></svg></defs></svg>